<?xml version="1.0" encoding="utf-8"?>
<!-- Generator: Adobe Illustrator 23.0.0, SVG Export Plug-In . SVG Version: 6.00 Build 0)  -->
<svg version="1.1" id="Camada_1" xmlns="http://www.w3.org/2000/svg" xmlns:xlink="http://www.w3.org/1999/xlink" x="0px" y="0px"
	 viewBox="0 0 512 512" style="enable-background:new 0 0 512 512;" xml:space="preserve">
<style type="text/css">
	.st0{fill:#CECECE;}
	.st1{fill:#4885FF;}
	.st2{fill:#4382FF;}
	.st3{font-family:'AgencyFB-Reg';}
	.st4{font-size:19px;}
	.st5{enable-background:new    ;}
	.st6{font-family:'Arial-BoldMT';}
	.st7{font-size:61.5072px;}
	.st8{font-size:59.2976px;}
	.st9{font-family:'ArialMT';}
	.st10{font-size:42.6026px;}
	.st11{fill:#070142;}
</style>
<g id="Camada_3">
</g>
<g id="Camada_4">
	<path class="st0" d="M93.6,59.7H7.5v434.4c2.9,6,7.9,11.2,13.8,14.9h72.3V59.7z"/>
	
		<image style="overflow:visible;enable-background:new    ;" width="400" height="400" xlink:href="../desenvolvimento_site.png"  transform="matrix(0.3388 0 0 0.3388 114.3425 71.0184)">
	</image>
	
		<image style="overflow:visible;enable-background:new    ;" width="786" height="469" xlink:href="../marketing dia 8-7.png"  transform="matrix(0.2433 0 0 0.2787 291 237.6485)">
	</image>
	<path class="st1" d="M238.4,426.8h-2.6c-2.3-13.1-8.6-25.1-18.2-34.7c-12.4-12.4-28.9-19.2-46.5-19.2s-34,6.8-46.5,19.2
		c-9.7,9.7-15.9,21.8-18.2,35h-2.5c-2.9,0-5.3,2.4-5.3,5.3v19.1c0,2.9,2.4,5.3,5.3,5.3h4.1c3.5,12.2,10.5,23.2,20.3,31.7
		c0.9,0.8,2.2,0.7,3-0.2s0.7-2.2-0.2-3c-2.5-2.2-4.9-4.6-7-7.1c3.3-1.4,6.6-2.5,9.9-3.4c1.6,2.8,3.4,5.5,5.3,8.1
		c4.3,5.7,9.2,10.6,14.4,14.7c-4.3-1.3-8.5-3-12.5-5.2c-1-0.6-2.3-0.2-2.9,0.8c-0.6,1-0.2,2.3,0.8,2.9c9.7,5.4,20.7,8.2,31.9,8.2
		c17.5,0,34-6.8,46.5-19.2c8-8,13.6-17.6,16.7-28.2h4.1c2.9,0,5.3-2.4,5.3-5.3v-19.5C243.6,429.2,241.3,426.8,238.4,426.8z
		 M231.4,426.8h-14.8c-0.2-1.1-0.4-2.2-0.6-3.3c-1.3-6.1-3.2-11.9-5.9-17.4c0.4-0.1,0.8-0.2,1.2-0.3c2.7-0.8,6.2-1.8,9.5-3.3
		C226.2,409.7,229.7,418,231.4,426.8z M212.4,427.1h-22c-0.1-1.1-0.2-2.1-0.2-3.2c-0.4-4.8-1-9.4-1.8-13.8c6.1-0.6,12-1.6,17.6-3
		c2.7,5.4,4.7,11.2,5.9,17.2C212.1,425.3,212.2,426.2,212.4,427.1z M214.6,395.1c1.3,1.3,2.4,2.6,3.6,3.9c-2.8,1.1-5.7,2-8,2.7
		c-0.7,0.2-1.3,0.4-2,0.6c-1.3-2.4-2.8-4.8-4.4-7c-4.2-5.9-9.3-11.1-15-15.5C198.4,382.5,207.2,387.8,214.6,395.1z M177.7,377.5
		c9,5.1,16.6,11.9,22.6,20.2c1.3,1.8,2.5,3.7,3.6,5.6c-5.3,1.2-10.7,2.1-16.4,2.7c-2.5-11.5-6.2-21.3-10.9-28.6
		C177,377.4,177.3,377.4,177.7,377.5z M171.1,377.1c0.1,0,0.1,0,0.2,0c5.2,6.8,9.3,17,12,29.2c-4.5,0.3-9.2,0.5-14,0.4
		c-3.2,0-6.7-0.1-10.3-0.4C161.7,394.1,165.8,383.9,171.1,377.1C171,377.1,171.1,377.1,171.1,377.1z M165.6,377.4
		c-4.7,7.3-8.4,17.2-10.9,28.6c-5.3-0.5-10.9-1.2-16.5-2.5c1.1-2,2.4-3.9,3.7-5.8c5.9-8.3,13.5-15.1,22.6-20.2
		C164.9,377.4,165.3,377.4,165.6,377.4z M153.9,410.2c-0.8,4.4-1.4,9-1.8,13.7c-0.1,1.1-0.2,2.1-0.2,3.2h-22
		c0.2-0.9,0.3-1.8,0.5-2.7c1.2-6,3.2-11.6,5.8-17C142.2,408.8,148.2,409.7,153.9,410.2z M127.7,395.1c7.3-7.3,16.2-12.6,25.9-15.5
		c-5.7,4.4-10.8,9.6-15,15.5c-1.7,2.3-3.2,4.7-4.6,7.2c-3.3-0.9-6.6-2.1-9.9-3.4C125.2,397.7,126.4,396.4,127.7,395.1z M121.4,402.5
		c3.5,1.5,7,2.8,10.6,3.8c-2.6,5.4-4.5,11.2-5.8,17.2c-0.2,1.2-0.5,2.4-0.6,3.6h-14.8C112.4,418.2,116,409.8,121.4,402.5z
		 M103.9,452.5c-0.6,0-1-0.5-1-1v-19.1c0-0.6,0.5-1,1-1h61.4c1.2,0,2.1-1,2.1-2.1c0-1.2-1-2.1-2.1-2.1h-9.2c0.1-0.9,0.1-1.9,0.2-2.8
		c0.4-4.8,1-9.3,1.9-13.7c3.9,0.2,7.6,0.4,11.1,0.4c0.8,0,1.7,0,2.5,0c4.2,0,8.3-0.2,12.3-0.5c0.8,4.4,1.4,9,1.9,13.8
		c0.1,0.9,0.2,1.9,0.2,2.8h-7.7c-1.2,0-2.1,1-2.1,2.1c0,1.2,1,2.1,2.1,2.1h33v21.2L103.9,452.5L103.9,452.5z M211,456.8
		c-1.2,4.6-2.9,9-5.1,13.2c-5.6-1.3-11.5-2.3-17.6-3c0.6-3.3,1.1-6.8,1.5-10.3L211,456.8L211,456.8z M185.6,456.8
		c-0.4,3.4-0.9,6.7-1.5,9.9c-4.8-0.4-9.8-0.5-14.9-0.4c-3.5,0-7.2,0.2-11.1,0.4c-0.6-3.2-1.1-6.5-1.5-9.8L185.6,456.8L185.6,456.8z
		 M121.4,474.6c-3.9-5.4-7-11.5-9-17.9h14.4c1.2,4.9,2.9,9.6,5.1,14.1C128.4,471.9,124.9,473.1,121.4,474.6z M131.2,456.8h21.2
		c0.4,3.5,0.9,6.9,1.5,10.2c-5.7,0.5-11.7,1.4-17.7,2.8C134.1,465.6,132.4,461.2,131.2,456.8z M164.5,499.7
		c-8-4.5-15.5-11.2-21.8-19.5c-1.6-2.1-3.1-4.3-4.4-6.6c5.6-1.3,11.1-2,16.4-2.5c0.8,3.9,1.8,7.6,3,11c1.7,5.1,4.4,12,7.9,17.6
		C165.3,499.7,164.9,499.7,164.5,499.7z M171.1,500c-0.1,0-0.1,0-0.2,0c-3.3-4.4-6.5-11.1-9.2-19.2c-1-3.2-2-6.5-2.7-10
		c3.6-0.2,7-0.3,10.3-0.4c4.8-0.1,9.4,0.1,13.9,0.4c-0.8,3.5-1.7,6.8-2.7,10c-2.7,8.1-5.9,14.8-9.2,19.2
		C171.2,500,171.2,500,171.1,500z M176.6,499.8c3.6-5.7,6.2-12.5,7.9-17.6c1.1-3.5,2.1-7.1,3-11c5.6,0.6,11.1,1.5,16.3,2.6
		c-1.3,2.2-2.7,4.3-4.3,6.3c-6.3,8.3-13.9,15-21.8,19.5C177.3,499.7,177,499.7,176.6,499.8z M214.6,482
		c-7.4,7.4-16.4,12.7-26.2,15.5c5.2-4.1,10.1-9.1,14.5-14.8c1.9-2.5,3.7-5.1,5.2-7.9c0.7,0.2,1.4,0.4,2.1,0.6c2.3,0.7,5.1,1.5,8,2.7
		C217,479.5,215.8,480.8,214.6,482z M220.9,474.7c-3.4-1.4-6.8-2.5-9.5-3.3c-0.4-0.1-0.8-0.2-1.2-0.3c2.2-4.5,4-9.3,5.2-14.2h14.4
		C227.8,463.2,224.8,469.2,220.9,474.7z M239.4,451.5c0,0.6-0.5,1-1,1h-22.6v-21.2h22.6c0.6,0,1,0.5,1,1V451.5z"/>
	<path class="st2" d="M233.7,437.4l-2.3-0.3l-1-2.1c-0.5-1.1-1.6-1.8-2.9-1.8s-2.3,0.7-2.9,1.8l-1,2.1l-2.3,0.3
		c-1.2,0.2-2.2,1-2.6,2.2c-0.4,1.2-0.1,2.4,0.8,3.3l1.7,1.6l-0.4,2.3c-0.2,1.2,0.3,2.4,1.3,3.1s2.3,0.8,3.4,0.2l2.1-1.1l2.1,1.1
		c0.5,0.2,1,0.4,1.5,0.4c0.7,0,1.3-0.2,1.9-0.6c1-0.7,1.5-1.9,1.3-3.1l-0.4-2.3l1.7-1.6c0.9-0.9,1.2-2.1,0.8-3.3
		C235.8,438.4,234.9,437.6,233.7,437.4z M230.4,441.8c-0.8,0.7-1.1,1.8-0.9,2.8l0.1,0.7L229,445c-0.9-0.5-2-0.5-3,0l-0.6,0.3
		l0.1-0.7c0.2-1-0.2-2.1-0.9-2.8l-0.5-0.5l0.7-0.1c1-0.2,1.9-0.8,2.4-1.7l0.3-0.6l0.3,0.6c0.5,0.9,1.4,1.6,2.4,1.7l0.7,0.1
		L230.4,441.8z"/>
	<text transform="matrix(1 0 0 1 140.5159 449.1004)" class="st3 st4">Tec-up.com</text>
	<text transform="matrix(1 0 0 1 107.6909 449.1004)" class="st3 st4">WWW</text>
	<text transform="matrix(0.5219 0 0 1 261.1006 130.1001)" class="st5"><tspan x="0" y="0" class="st6 st7">O marketing </tspan><tspan x="0" y="73.8" class="st6 st7">da sua empresa</tspan></text>
	<text transform="matrix(0.4177 0 0 1 114.3428 312.2998)" class="st6 st8">Com a Tec-Up</text>
	<text transform="matrix(1.0492 0 0 1 277.0898 463.7832)" class="st9 st10">É Sucesso</text>
</g>
<g>
	<path d="M78.4,328.3H22c-3.1,0-5.6-2-5.6-4.4c0-2.5,2.5-4.4,5.6-4.4h56.4c3.1,0,5.6,2,5.6,4.4S81.5,328.3,78.4,328.3z"/>
	<path d="M78.4,311.9H22c-3.1,0-5.6-2-5.6-4.4c0-2.5,2.5-4.4,5.6-4.4h56.4c3.1,0,5.6,2,5.6,4.4S81.5,311.9,78.4,311.9z"/>
	<path d="M78.4,293.4H22c-3.1,0-5.6-2-5.6-4.4c0-2.5,2.5-4.4,5.6-4.4h56.4c3.1,0,5.6,2,5.6,4.4S81.5,293.4,78.4,293.4z"/>
	<g>
		<g>
			<path class="st11" d="M62.1,225.2c-0.1-0.1-0.2-0.1-0.3-0.1h-5.3c-0.2,0-0.4,0.2-0.4,0.4v5.4c0,0.1,0.1,0.2,0.1,0.3
				c0.1,0.1,0.2,0.1,0.3,0.1l0,0h5.4c0.2,0,0.4-0.2,0.4-0.4v-5.4C62.2,225.4,62.1,225.3,62.1,225.2z M61.4,230.5h-4.5v-4.6h4.5
				V230.5L61.4,230.5z"/>
		</g>
	</g>
	<g>
		<g>
			<path class="st11" d="M65.4,237.4c-0.2,0-0.4,0.2-0.4,0.4v9.8c0,3.2-2.5,5.6-5.6,5.6H39.8c-3.2,0-5.6-2.5-5.6-5.6V228
				c0-3.2,2.5-5.6,5.6-5.6h19.6c3.2,0,5.7,2.5,5.7,5.7c0,0.2,0.2,0.4,0.4,0.4s0.4-0.2,0.4-0.4c0-3.7-2.9-6.5-6.5-6.5H39.8
				c-3.6,0-6.5,2.8-6.5,6.5v19.6c0,3.6,2.8,6.5,6.5,6.5h19.6c3.6,0,6.5-2.8,6.5-6.5v-9.8C65.8,237.6,65.7,237.4,65.4,237.4z"/>
		</g>
	</g>
	<g>
		<g>
			<path class="st11" d="M62.6,234.1h-4.9c-0.1,0-0.3,0.1-0.4,0.2c-0.1,0.1-0.1,0.3,0,0.4c0.4,0.7,0.6,1.9,0.6,3.1
				c0,4.6-3.7,8.3-8.3,8.3s-8.3-3.7-8.3-8.3c0-1.2,0.2-2.4,0.6-3.1c0.1-0.1,0.1-0.3,0-0.4c-0.1-0.1-0.2-0.2-0.4-0.2h-4.9
				c-0.2,0-0.4,0.2-0.4,0.4v13.1c0,1.9,1.7,3.6,3.6,3.6h19.6c1.9,0,3.6-1.7,3.6-3.6v-13.1C63,234.3,62.8,234.1,62.6,234.1z
				 M62.2,247.6c0,1.5-1.3,2.8-2.8,2.8H39.8c-1.5,0-2.8-1.3-2.8-2.8v-12.7h3.9c-0.3,0.8-0.4,1.8-0.4,2.9c0,5,4.1,9.1,9.1,9.1
				s9.1-4.1,9.1-9.1c0-1-0.2-2-0.4-2.9h3.9L62.2,247.6L62.2,247.6z"/>
		</g>
	</g>
	<g>
		<g>
			<path class="st11" d="M54.5,234.3c-1.1-1.6-3-2.5-4.9-2.5s-3.7,0.9-4.9,2.5c-0.7,1-1.1,2.3-1.1,3.5c0,3.3,2.7,6,6,6s6-2.7,6-6
				C55.6,236.5,55.2,235.3,54.5,234.3z M49.6,243c-2.9,0-5.2-2.3-5.2-5.2c0-1.1,0.3-2.2,1-3c1-1.4,2.6-2.2,4.2-2.2
				c1.7,0,3.2,0.8,4.2,2.2c0.6,0.9,1,1.9,1,3C54.8,240.7,52.5,243,49.6,243z"/>
		</g>
	</g>
	<g>
		<g>
			<path d="M29.1,253.2l-13.6-13.4l-1.1-1.1l34.7-35.3c0.7-0.7,0-1.2-0.7-0.6l-35.2,36l15.2,14.9C29.1,254.4,29.7,253.7,29.1,253.2z
				"/>
			<path d="M87.2,238.1l-18.3-18c-0.3-0.3-0.8-0.1-0.8,0.5l17.8,17.5l-35.4,36l-16-15.7c-0.8-0.6-1.3,0.1-0.3,0.9l16.3,16
				L87.2,238.1z"/>
		</g>
	</g>
	<g>
		<g>
			<path d="M66.2,217.5L51.5,203c-0.8-0.5-1.3,0.1-0.5,0.8l0,0l14.6,14.3c0.2,0.2,0.5,0.2,0.6,0C66.4,218,66.4,217.7,66.2,217.5z"/>
		</g>
	</g>
	<g>
		<g>
			<path d="M49.3,199.9l0.5,0.4l0.4-0.3c0.2-0.2,0.2-0.5,0.1-0.7C49.9,199,49.2,199.2,49.3,199.9z"/>
			<path d="M50.1,200l-0.3,0.3l38.6,37.9l-33.9,34.6c-0.8,0.8-0.3,1.9,1.2,0.2l34.1-34.8l-39.5-38.8C50.3,199.5,50.3,199.8,50.1,200
				z"/>
			<path d="M13.2,239.9l-1.2-1.2l37.8-38.5l-0.4-0.4c-0.1-0.7,0.5-0.8,0.8-0.5c-0.2-0.3-0.5-0.3-0.7-0.1l-38.7,39.6l34.6,34
				c1.3,1.3,2,0.7,0.9-0.4L13.2,239.9z"/>
		</g>
	</g>
	<path d="M78.4,182.5H22c-3.1,0-5.6-2-5.6-4.4c0-2.5,2.5-4.4,5.6-4.4h56.4c3.1,0,5.6,2,5.6,4.4S81.5,182.5,78.4,182.5z"/>
	<path d="M78.4,166.1H22c-3.1,0-5.6-2-5.6-4.4c0-2.5,2.5-4.4,5.6-4.4h56.4c3.1,0,5.6,2,5.6,4.4C84,164.2,81.5,166.1,78.4,166.1z"/>
	<path d="M78.4,147.7H22c-3.1,0-5.6-2-5.6-4.4c0-2.5,2.5-4.4,5.6-4.4h56.4c3.1,0,5.6,2,5.6,4.4S81.5,147.7,78.4,147.7z"/>
	<g>
		<g>
			<path class="st11" d="M58.1,88.9c-0.1-0.1-0.2-0.1-0.3-0.1h-4.7v-2.1c0-1.1,0.7-1.2,1-1.2h3.6c0.2,0,0.4-0.2,0.4-0.4v-5.5
				c0-0.2-0.2-0.4-0.4-0.4h-5.1c-5.4,0-7.3,3.7-7.3,7.2v2.4h-2.5c-0.2,0-0.4,0.2-0.4,0.4v6.6c0,0.2,0.2,0.4,0.4,0.4h2.9v15.7
				c0,0.2,0.2,0.4,0.4,0.4h6.2c0.2,0,0.4-0.2,0.4-0.4v-3.7c0-0.2-0.2-0.4-0.4-0.4s-0.4,0.2-0.4,0.4v3.3h-5.4V95.7
				c0-0.2-0.2-0.4-0.4-0.4h-2.9v-5.8h2.5c0.2,0,0.4-0.2,0.4-0.4v-2.8c0-6.1,5.4-6.4,6.5-6.4h4.7v4.7h-3.2c-0.9,0-1.8,0.6-1.8,2.1
				v2.5c0,0.2,0.2,0.4,0.4,0.4h4.7l-0.5,5.8h-4.5c-0.2,0-0.4,0.2-0.4,0.4v5.4c0,0.2,0.2,0.4,0.4,0.4s0.4-0.2,0.4-0.4v-5h4.5
				c0.2,0,0.4-0.2,0.4-0.4l0.6-6.6C58.3,89.1,58.2,89,58.1,88.9z"/>
		</g>
	</g>
	<g>
		<g>
			<path d="M31.3,109.6L18.8,97.3l-1-1l31.8-32.4c0.6-0.6,0-1.1-0.6-0.6l-32.3,33L30.6,110C31.3,110.7,31.8,110.1,31.3,109.6z"/>
			<path d="M84.5,95.8L67.7,79.3c-0.3-0.3-0.8-0.1-0.7,0.5l16.4,16.1l-32.4,33l-14.7-14.4c-0.7-0.5-1.2,0.1-0.3,0.9l15,14.7
				L84.5,95.8z"/>
		</g>
	</g>
	<g>
		<g>
			<path d="M65.3,76.9L51.7,63.6c-0.7-0.5-1.2,0.1-0.4,0.7l0,0l13.4,13.2c0.2,0.2,0.4,0.2,0.6,0C65.4,77.3,65.4,77.1,65.3,76.9z"/>
		</g>
	</g>
	<g>
		<g>
			<path d="M49.8,60.7l0.4,0.4l0.3-0.3c0.2-0.2,0.2-0.4,0-0.6C50.3,59.9,49.7,60.1,49.8,60.7z"/>
			<path d="M50.5,60.8l-0.3,0.3l35.4,34.7l-31.1,31.7c-0.7,0.8-0.2,1.7,1.1,0.2l31.3-31.9L50.6,60.2C50.7,60.4,50.6,60.6,50.5,60.8z
				"/>
			<path d="M16.6,97.5l-1.1-1.1l34.7-35.3l-0.4-0.4c0-0.6,0.5-0.8,0.8-0.5c-0.2-0.2-0.5-0.2-0.7-0.1L14.3,96.5l31.8,31.2
				c1.2,1.2,1.9,0.6,0.9-0.4L16.6,97.5z"/>
		</g>
	</g>
	<g>
		<g>
			<g>
				<path class="st11" d="M57.6,378.1l-0.2-0.1c-0.3-0.1-2.2-1.1-2.6-1.2c-0.3-0.1-0.9-0.3-1.3,0.3c-0.2,0.3-0.9,1.1-1.1,1.4
					c-0.1,0.1-0.1,0.1-0.3,0c-0.1,0-0.2-0.1-0.3-0.1c-0.5-0.2-1.5-0.6-2.6-1.7c-0.2-0.1-0.4-0.1-0.6,0s-0.1,0.4,0,0.6
					c1.2,1.1,2.3,1.6,2.8,1.8c0.1,0,0.2,0.1,0.2,0.1c0.2,0.1,0.8,0.4,1.3-0.2c0,0,0.9-1,1.2-1.5c0.1-0.1,0.1-0.1,0.4,0
					c0.3,0.1,2,0.9,2.5,1.2l0.2,0.1c0.1,0.1,0.3,0.1,0.3,0.2c0,0.2,0,0.7-0.2,1.4c-0.2,0.7-1.6,1.4-2.2,1.5c-0.1,0-0.3,0-0.4,0.1
					c-0.4,0.1-0.9,0.2-3.9-1c-2.2-0.8-4.3-2.7-6.1-5.3c-0.1-0.1-0.1-0.1-0.1-0.1c-0.3-0.4-1.4-2-1.4-3.6c0-1.5,0.8-2.3,1.1-2.7
					l0.1-0.1c0.3-0.3,0.6-0.3,0.7-0.3c0.1,0,0.2,0,0.3,0c0.2,0,0.3,0,0.5,0c0.1,0,0.2,0,0.4,0.4c0.1,0.3,0.3,0.6,0.4,1
					c0.4,1,0.7,1.6,0.7,1.7c0.1,0.2,0.1,0.2,0,0.3l-0.1,0.1c-0.1,0.2-0.1,0.3-0.3,0.4c-0.1,0.1-0.1,0.2-0.2,0.2
					c-0.1,0.1-0.2,0.3-0.3,0.4c-0.2,0.2-0.6,0.6-0.2,1.2c0.1,0.2,0.3,0.2,0.5,0.1s0.3-0.3,0.1-0.5c-0.1-0.1-0.1-0.1,0.1-0.3
					c0.1-0.1,0.3-0.3,0.4-0.4c0.1-0.1,0.1-0.2,0.2-0.2c0.2-0.2,0.3-0.4,0.4-0.6l0.1-0.1c0.2-0.5,0-0.9,0-1c-0.1-0.1-0.4-1-0.7-1.7
					c-0.2-0.4-0.3-0.8-0.4-1c-0.3-0.8-0.8-0.9-1.1-0.9H46c-0.1,0-0.2,0-0.3,0s-0.3,0-0.4,0c-0.2,0-0.8,0.1-1.3,0.6l-0.1,0.1
					c-0.4,0.4-1.3,1.4-1.3,3.3c0,1.8,1.1,3.4,1.6,4.1c0,0,0,0.1,0.1,0.1c1.8,2.7,4.1,4.7,6.4,5.6c2.2,0.9,3.2,1.1,3.8,1.1
					c0.3,0,0.4,0,0.6-0.1c0.1,0,0.2,0,0.3-0.1c0.8-0.1,2.5-0.9,2.8-2c0.3-0.8,0.4-1.8,0.2-2.1C58.2,378.3,57.9,378.2,57.6,378.1z"/>
				<path class="st11" d="M50.3,362.3c-7.2,0-13.1,5.9-13.1,13c0,2.7,0.8,5.3,2.4,7.5l-1.5,4.5c-0.1,0.1,0,0.3,0.1,0.4
					s0.3,0.1,0.4,0.1l4.7-1.5c2.1,1.3,4.6,2.1,7.1,2.1c7.3,0,13.1-5.9,13.1-13C63.4,368.1,57.6,362.3,50.3,362.3z M50.3,387.6
					c-2.4,0-4.8-0.7-6.8-2c-0.1,0-0.1-0.1-0.2-0.1h-0.1l-4.1,1.3l1.3-4c0-0.1,0-0.3-0.1-0.4c-1.5-2.1-2.3-4.6-2.3-7.2
					c0-6.8,5.5-12.2,12.3-12.2s12.3,5.5,12.3,12.2C62.7,382.1,57.1,387.6,50.3,387.6z"/>
			</g>
		</g>
	</g>
	<g>
		<g>
			<path class="st11" d="M50.3,359.9c-8.6,0-15.6,6.9-15.6,15.4c0,2.7,0.7,5.5,2.1,7.8l-2.7,7.9c-0.1,0.1,0,0.3,0.1,0.4
				s0.2,0.1,0.3,0.1h0.1l8.2-2.6c2.2,1.2,4.8,1.8,7.4,1.8c8.6,0,15.6-6.9,15.6-15.4C65.9,366.8,58.9,359.9,50.3,359.9z M50.3,390
				c-2.5,0-5-0.6-7.1-1.8c-0.1-0.1-0.2-0.1-0.3,0l-7.6,2.4l2.5-7.3c0-0.1,0-0.2,0-0.3c-1.4-2.3-2.1-4.9-2.1-7.6
				c0-8.1,6.6-14.6,14.8-14.6c8.1,0,14.8,6.6,14.8,14.6C65.1,383.4,58.5,390,50.3,390z"/>
		</g>
	</g>
	<g>
		<g>
			<path d="M29.3,391.3l-14-13.7l-1.1-1.1l35.6-36.3c0.7-0.7,0-1.3-0.7-0.6l-36.2,37l15.6,15.3C29.3,392.5,29.8,391.9,29.3,391.3z"
				/>
			<path d="M89,375.8l-18.9-18.5c-0.3-0.3-0.9-0.1-0.8,0.5l18.3,18l-36.3,37l-16.4-16.1c-0.8-0.6-1.3,0.1-0.3,1l16.8,16.5L89,375.8z
				"/>
		</g>
	</g>
	<g>
		<g>
			<path d="M67.4,354.7l-15.2-14.9c-0.8-0.6-1.3,0.1-0.5,0.8l0,0l15,14.7c0.2,0.2,0.5,0.2,0.7,0C67.6,355.2,67.6,354.9,67.4,354.7z"
				/>
		</g>
	</g>
	<g>
		<g>
			<path d="M50,336.5l0.5,0.4l0.4-0.3c0.2-0.2,0.2-0.5,0.1-0.7C50.6,335.7,50,335.9,50,336.5z"/>
			<path d="M50.8,336.6l-0.3,0.3l39.6,38.9l-34.9,35.5c-0.8,0.8-0.3,1.9,1.2,0.2l35.1-35.8L50.9,336C51.1,336.2,51,336.5,50.8,336.6
				z"/>
			<path d="M12.9,377.7l-1.2-1.2L50.5,337l-0.4-0.4c-0.1-0.7,0.6-0.9,0.9-0.6c-0.2-0.3-0.6-0.3-0.8-0.1l-39.8,40.7l35.6,35
				c1.4,1.4,2.1,0.7,1-0.4L12.9,377.7z"/>
		</g>
	</g>
	<path d="M76.4,465.5H20c-3.1,0-5.6-2-5.6-4.4c0-2.5,2.5-4.4,5.6-4.4h56.4c3.1,0,5.6,2,5.6,4.4S79.5,465.5,76.4,465.5z"/>
	<path d="M76.4,449.1H20c-3.1,0-5.6-2-5.6-4.4c0-2.5,2.5-4.4,5.6-4.4h56.4c3.1,0,5.6,2,5.6,4.4S79.5,449.1,76.4,449.1z"/>
	<path d="M76.4,430.6H20c-3.1,0-5.6-2-5.6-4.4c0-2.5,2.5-4.4,5.6-4.4h56.4c3.1,0,5.6,2,5.6,4.4C82,428.7,79.5,430.6,76.4,430.6z"/>
</g>
<g>
	<g id="Shape_4">
		<g>
			<polygon points="512,461 511.1,200.9 511.1,452.9 			"/>
			<ellipse cx="56.6" cy="29.3" rx="15.9" ry="17.3"/>
			<path d="M510.9,52.5c0-11.9-2.8-23-7.1-31.8c3.7,8.7,6.4,20.3,7.1,35.3L510.9,52.5z"/>
			<ellipse cx="104.4" cy="29.3" rx="15.9" ry="17.3"/>
			<path d="M509.8,58.2H0.4c0,1.5,0,1.5,0,1.5h509.8c0,0,0-0.1,0-0.1L509.8,58.2z"/>
			<path d="M510.9,55.9l0.1,71.4h-0.3c0,0.9,0,1.8,0,2.7h0.1l0.3,70.9V67.8C511.2,63.6,511.1,59.7,510.9,55.9z"/>
			<path d="M511.1,481v-28.1l-0.2-1.5c0.7,30.8-15.6,56.9-31.5,58.9L39,511c-20.8,0-36.1-16.1-38.4-49.2L1.2,130h0.5
				c0-0.9,0-1.8,0-2.7H1.3V64c0-43.9,16.2-63.2,37.2-63.2l443.9,0.6c7.6,0,15.8,7.6,21.5,19.3c-5.9-14.1-14.2-20.6-20.1-21L35.3,0
				C16.2-0.9,0,24.1,0,51.2v409.9c0,28.3,13.8,50,32.6,50l444.1,1.2C496.3,512.3,512.1,489.4,511.1,481z"/>
			<ellipse cx="152.3" cy="29.3" rx="15.9" ry="17.3"/>
		</g>
	</g>
</g>
</svg>
