<?xml version="1.0" encoding="utf-8"?>
<!-- Generator: Adobe Illustrator 23.0.0, SVG Export Plug-In . SVG Version: 6.00 Build 0)  -->
<svg version="1.1" id="Capa_1" xmlns="http://www.w3.org/2000/svg" xmlns:xlink="http://www.w3.org/1999/xlink" x="0px" y="0px"
	 viewBox="0 0 612 612" style="enable-background:new 0 0 612 612;" xml:space="preserve">
<style type="text/css">
	.st0{fill:#FFFFFF;}
	.st1{fill:#428DFF;}
	.st2{fill:#445EA0;}
	.st3{fill:#2E4C89;}
	.st4{fill:#293D7C;}
	.st5{fill:#1A2B63;}
	.st6{fill:#D9EAFC;}
	.st7{fill:#C3DDF4;}
	.st8{fill:#AEC1ED;}
	.st9{fill:#FFAF10;}
	.st10{fill:#FF9518;}
	.st11{fill:#5DC1D8;}
	.st12{font-family:'MyriadPro-Regular';}
	.st13{font-size:49.1407px;}
</style>
<g>
	<g id="Shape_4">
		<g>
			<path d="M75.5,138c-11.7,0-21.1,9.5-21.1,21.1c0,11.7,9.4,21.1,21.1,21.1c11.7,0,21.1-9.4,21.1-21.1
				C96.6,147.4,87.1,138,75.5,138z M579.6,95.6L43.8,95.8C21,95.1,1.6,115.7,1.6,138v337.7c0,23.3,16.5,41.2,39,41.2l530.8,1
				c23.3,0,42.2-18.9,41-25.8V151.7C613.6,112.4,592.1,96.1,579.6,95.6z M612.2,467.7c0.8,25.4-18.7,46.9-37.7,48.5l-526.3,0.6
				c-24.9,0-43.2-13.3-45.9-40.5l0.7-273.4h609.1l1.4,272.7L612.2,467.7z M611.4,200.7H3.1v-52.1c0-36.2,19.4-52.1,44.4-52.1L578,97
				c16.1,0,34.2,19.5,34.2,42.1l0.1,61.6H611.4z M138.8,138c-11.7,0-21.1,9.4-21.1,21.1s9.4,21.1,21.1,21.1s21.1-9.4,21.1-21.1
				C159.9,147.4,150.4,138,138.8,138z M202.1,138c-11.7,0-21.1,9.4-21.1,21.1s9.4,21.1,21.1,21.1s21.1-9.4,21.1-21.1
				C223.2,147.4,213.8,138,202.1,138z"/>
		</g>
	</g>
</g>
<path class="st0" d="M547.9,594.9H244.4c-134.1,0-242.8-109-242.8-243.4V255c0-40.5,32.8-73.3,73.1-73.3h330.7
	c113.8,0,189.3,51.5,206.6,140.3l-0.4,209.2C611.5,566.4,583,594.9,547.9,594.9z"/>
<g>
	<g>
		<path class="st1" d="M181,456.9c-58.1,0-105.1-47.1-105.1-105.1S122.9,246.7,181,246.7s105.1,47.1,105.1,105.1
			C286,409.8,239,456.9,181,456.9z M181,253.9c-54.1,0-97.9,43.8-97.9,97.9s43.8,97.9,97.9,97.9s97.9-43.8,97.9-97.9
			C278.8,297.8,235,254,181,253.9z"/>
		<path class="st1" d="M181,456.9c-1,0-1.9-0.4-2.6-1.1s-1.1-1.6-1.1-2.6v-203c0-2,1.6-3.6,3.6-3.6c2,0,3.6,1.6,3.6,3.6v203
			c0,1-0.4,1.9-1.1,2.6C182.8,456.6,181.9,457,181,456.9z"/>
		<path class="st1" d="M181,456.9c-0.5,0-1.1,0-1.6,0l-0.8,0c-0.8,0-1.6-0.3-2.2-0.8c-31.5-25.5-49.8-63.8-49.8-104.3
			s18.3-78.8,49.8-104.3c0.6-0.5,1.4-0.8,2.2-0.8l0.8,0c0.5,0,1.1,0,1.6,0c2,0,3.6,1.6,3.6,3.6s-1.6,3.6-3.6,3.6c-0.3,0-0.6,0-1,0
			c-29.2,24.1-46.2,60-46.2,97.9s16.9,73.8,46.2,97.9c0.3,0,0.6,0,1,0c2,0,3.6,1.6,3.6,3.6C184.6,455.3,183,456.9,181,456.9z"/>
		<path class="st1" d="M181,308.3c-27,0-53.4-8.1-75.7-23.4c-1.1-0.7-1.7-2-1.6-3.3c0.1-1.3,0.9-2.4,2-3s2.5-0.5,3.6,0.3
			c21.1,14.4,46,22.1,71.6,22.1c25.5,0,50.5-7.7,71.6-22.1c1.7-1.1,3.9-0.7,5,0.9c1.1,1.7,0.7,3.9-0.9,5
			C234.3,300.2,208,308.3,181,308.3L181,308.3z"/>
		<path class="st1" d="M256.6,423.1c-0.8,0-1.5-0.2-2.1-0.7c-44-31.3-103.1-31.3-147.1,0c-1.6,1.2-3.9,0.8-5.1-0.8
			c-1.2-1.6-0.8-3.9,0.8-5.1c46.5-33.1,108.9-33.1,155.5,0c1.3,0.9,1.8,2.6,1.3,4.1C259.6,422.1,258.2,423.1,256.6,423.1
			L256.6,423.1z"/>
		<path class="st1" d="M181,456.9c-2,0-3.6-1.6-3.6-3.6c0-2,1.6-3.6,3.6-3.6c0.3,0,0.6,0,1,0c29.2-24.1,46.2-60,46.2-97.9
			s-16.9-73.8-46.2-97.9c-0.3,0-0.6,0-1,0c-2,0-3.6-1.6-3.6-3.6s1.6-3.6,3.6-3.6c0.5,0,1.1,0,1.6,0l0.8,0c0.8,0,1.6,0.3,2.2,0.8
			c31.5,25.5,49.8,63.8,49.8,104.3s-18.3,78.8-49.8,104.3c-0.6,0.5-1.4,0.8-2.2,0.8l-0.8,0C182,456.9,181.5,456.9,181,456.9z"/>
		<path class="st1" d="M282.5,355.4h-203c-2,0-3.6-1.6-3.6-3.6c0-2,1.6-3.6,3.6-3.6h203c2,0,3.6,1.6,3.6,3.6
			C286.1,353.8,284.5,355.4,282.5,355.4z"/>
	</g>
</g>
<rect x="332.8" y="443" class="st2" width="44.9" height="23.5"/>
<rect x="332.8" y="443" class="st3" width="11.3" height="23.5"/>
<path class="st4" d="M407.6,466h-108c-1.6,0-2.9,1.3-2.9,2.9v14.6c0,1.6,1.3,2.9,2.9,2.9h108L407.6,466L407.6,466z"/>
<path class="st5" d="M308,483.5v-14.6c0-1.6,1.3-2.9,2.9-2.9h-11.3c-1.6,0-2.9,1.3-2.9,2.9v14.6c0,1.6,1.3,2.9,2.9,2.9h11.3
	C309.3,486.4,308,485.1,308,483.5z"/>
<path class="st4" d="M480.8,272H229.7c-1.6,0-2.9,1.3-2.9,2.9v165.7c0,1.6,1.3,2.9,2.9,2.9h177.9v-87.2c0-2.2,1.8-4,4-4h72.1v-77.5
	C483.7,273.3,482.4,272,480.8,272z"/>
<path class="st0" d="M239.5,414.4c0,1,0.8,1.7,1.7,1.7h166.3v-59.8c0-2.2,1.8-4,4-4h59.3v-51.8H239.5V414.4z"/>
<path class="st6" d="M250.9,414.4V300.6h-11.3v113.9c0,1,0.8,1.7,1.7,1.7h11.3C251.7,416.2,250.9,415.4,250.9,414.4z"/>
<circle class="st2" cx="355.2" cy="429.8" r="7.9"/>
<path class="st7" d="M407.6,365.7h-30.5c-0.9,0-1.7,0.8-1.7,1.7v34c0,0.9,0.8,1.7,1.7,1.7h30.5V365.7z"/>
<path class="st8" d="M386.7,401.5v-34c0-0.9,0.8-1.7,1.7-1.7h-11.3c-0.9,0-1.7,0.8-1.7,1.7v34c0,0.9,0.8,1.7,1.7,1.7h11.3
	C387.5,403.2,386.7,402.4,386.7,401.5z"/>
<path class="st7" d="M411.6,352.4h26.6v-37.3c0-1.6-1.3-2.9-2.9-2.9H275.1c-1.6,0-2.9,1.3-2.9,2.9v38c0,1.6,1.3,2.9,2.9,2.9h132.6
	C407.9,353.9,409.6,352.4,411.6,352.4z"/>
<path class="st8" d="M283.6,353v-38c0-1.6,1.3-2.9,2.9-2.9h-11.3c-1.6,0-2.9,1.3-2.9,2.9v38c0,1.6,1.3,2.9,2.9,2.9h11.3
	C284.9,355.9,283.6,354.6,283.6,353z"/>
<path class="st9" d="M469.2,286.9H241.3c-1,0-1.7,0.8-1.7,1.7v12.5h231.4v-12.5C470.9,287.6,470.1,286.9,469.2,286.9z"/>
<path class="st10" d="M252.6,286.9h-11.3c-1,0-1.7,0.8-1.7,1.7v12.5h11.3v-12.5C250.9,287.6,251.7,286.9,252.6,286.9z"/>
<g>
	<path class="st11" d="M324.7,374.8h-48c-2.4,0-4.3-1.9-4.3-4.3c0-2.4,1.9-4.3,4.3-4.3h48c2.4,0,4.3,1.9,4.3,4.3
		C328.9,372.8,327,374.8,324.7,374.8z"/>
	<path class="st11" d="M324.7,388.7h-48c-2.4,0-4.3-1.9-4.3-4.3s1.9-4.3,4.3-4.3h48c2.4,0,4.3,1.9,4.3,4.3
		C328.9,386.8,327,388.7,324.7,388.7z"/>
	<path class="st11" d="M324.7,402.7h-48c-2.4,0-4.3-1.9-4.3-4.3s1.9-4.3,4.3-4.3h48c2.4,0,4.3,1.9,4.3,4.3S327,402.7,324.7,402.7z"
		/>
	<path class="st11" d="M362.4,374.8h-24.7c-2.4,0-4.3-1.9-4.3-4.3c0-2.4,1.9-4.3,4.3-4.3h24.7c2.4,0,4.3,1.9,4.3,4.3
		C366.6,372.8,364.7,374.8,362.4,374.8z"/>
	<path class="st11" d="M362.4,388.7h-24.7c-2.4,0-4.3-1.9-4.3-4.3s1.9-4.3,4.3-4.3h24.7c2.4,0,4.3,1.9,4.3,4.3
		C366.6,386.8,364.7,388.7,362.4,388.7z"/>
	<path class="st11" d="M362.4,402.7h-24.7c-2.4,0-4.3-1.9-4.3-4.3s1.9-4.3,4.3-4.3h24.7c2.4,0,4.3,1.9,4.3,4.3
		S364.7,402.7,362.4,402.7z"/>
</g>
<path class="st2" d="M514.4,351.8c2.5,0,4.6,2.1,4.6,4.6v138c0,2.5-2.1,4.6-4.6,4.6H411.6c-2.5,0-4.6-2.1-4.6-4.6v-138
	c0-2.5,2.1-4.6,4.6-4.6L514.4,351.8L514.4,351.8z"/>
<path class="st0" d="M419.4,481c-1.6,0-2.9-1.3-2.9-2.9V363.5c0-1.6,1.3-2.9,2.9-2.9h87.2c1.6,0,2.9,1.3,2.9,2.9v114.7
	c0,1.6-1.3,2.9-2.9,2.9H419.4z"/>
<path class="st6" d="M427.9,478.2V363.5c0-1.6,1.3-2.9,2.9-2.9h-11.3c-1.6,0-2.9,1.3-2.9,2.9v114.7c0,1.6,1.3,2.9,2.9,2.9h11.3
	C429.2,481,427.9,479.7,427.9,478.2z"/>
<path class="st2" d="M457.7,492.4c-1.6,0-2.9-1.3-2.9-2.9v-1.1c0-1.6,1.3-2.9,2.9-2.9h10.7c1.6,0,2.9,1.3,2.9,2.9v1.1
	c0,1.6-1.3,2.9-2.9,2.9H457.7z"/>
<path class="st9" d="M509.5,371.6v-8.2c0-1.6-1.3-2.9-2.9-2.9h-87.2c-1.6,0-2.9,1.3-2.9,2.9v8.2L509.5,371.6L509.5,371.6z"/>
<path class="st10" d="M430.8,360.6h-11.3c-1.6,0-2.9,1.3-2.9,2.9v8.2h11.3v-8.2C427.9,361.9,429.2,360.6,430.8,360.6z"/>
<g>
	<path class="st11" d="M482.5,423.8h-38.9c-2.4,0-4.3-1.9-4.3-4.3s1.9-4.3,4.3-4.3h38.9c2.4,0,4.3,1.9,4.3,4.3
		C486.8,421.9,484.8,423.8,482.5,423.8z"/>
	<path class="st11" d="M482.5,437h-38.9c-2.4,0-4.3-1.9-4.3-4.3c0-2.4,1.9-4.3,4.3-4.3h38.9c2.4,0,4.3,1.9,4.3,4.3
		C486.8,435.1,484.8,437,482.5,437z"/>
	<path class="st11" d="M482.5,450.2h-38.9c-2.4,0-4.3-1.9-4.3-4.3c0-2.4,1.9-4.3,4.3-4.3h38.9c2.4,0,4.3,1.9,4.3,4.3
		C486.8,448.3,484.8,450.2,482.5,450.2z"/>
</g>
<path class="st7" d="M500.6,405.2c0,1.6-1.3,2.9-2.9,2.9h-69.4c-1.6,0-2.9-1.3-2.9-2.9v-23.5c0-1.6,1.3-2.9,2.9-2.9h69.4
	c1.6,0,2.9,1.3,2.9,2.9V405.2z"/>
<path class="st8" d="M436.8,405.2v-23.5c0-1.6,1.3-2.9,2.9-2.9h-11.3c-1.6,0-2.9,1.3-2.9,2.9v23.5c0,1.6,1.3,2.9,2.9,2.9h11.3
	C438.1,408,436.8,406.7,436.8,405.2z"/>
<path class="st7" d="M490.3,472c0,1.6-1.3,2.9-2.9,2.9h-48.9c-1.6,0-2.9-1.3-2.9-2.9v-9.7c0-1.6,1.3-2.9,2.9-2.9h48.9
	c1.6,0,2.9,1.3,2.9,2.9L490.3,472L490.3,472z"/>
<path class="st8" d="M447.1,472v-9.7c0-1.6,1.3-2.9,2.9-2.9h-11.3c-1.6,0-2.9,1.3-2.9,2.9v9.7c0,1.6,1.3,2.9,2.9,2.9h11.3
	C448.3,474.9,447.1,473.6,447.1,472z"/>
<g>
	<path class="st4" d="M331.7,515.4h-13.1c1.1-1.6,1.8-3.5,1.8-5.6v-113c0-5.4-4.4-9.7-9.7-9.7H132.4c-5.4,0-9.7,4.4-9.7,9.7v113
		c0,2.1,0.7,4.1,1.9,5.7h-13.2c0,0-0.6,0.6,1,2.2c4.4,4.5,14.4,4.8,14.4,4.8v0c0,0,187.2,0,187.4,0c10.4,0,13.8-3.1,16.6-5
		C332.8,515.5,331.7,515.4,331.7,515.4z M234,517.7H209V516H234L234,517.7L234,517.7z M315.4,507.5H129.6V395.8h185.8L315.4,507.5
		L315.4,507.5z"/>
</g>
<path class="st0" d="M135.3,514c-3.1,0-5.7-1.3-5.7-2.8V397c0-1.6,2.6-2.8,5.7-2.8h174.4c3.1,0,5.7,1.3,5.7,2.8v114.2
	c0,1.6-2.6,2.8-5.7,2.8H135.3z"/>
<path class="st6" d="M129.6,396.4v114.7"/>
<path class="st9" d="M315.4,403.9v-8.2c0-1.6-2.6-2.9-5.7-2.9H136.1c-3.1,0-5.7,1.3-5.7,2.9v8.2H315.4L315.4,403.9z"/>
<path class="st7" d="M295.7,438.2c0,1.6-2.5,2.9-5.6,2.9H152.7c-3.1,0-5.6-1.3-5.6-2.9v-23.5c0-1.6,2.5-2.9,5.6-2.9H290
	c3.1,0,5.6,1.3,5.6,2.9V438.2z"/>
<path class="st7" d="M275.3,505c0,1.6-2.5,2.9-5.6,2.9h-96.7c-3.1,0-5.6-1.3-5.6-2.9v-9.7c0-1.6,2.5-2.9,5.6-2.9h96.7
	c3.1,0,5.6,1.3,5.6,2.9L275.3,505L275.3,505z"/>
<g>
	<path class="st11" d="M226.2,458.4h-48c-2.4,0-4.3-1.9-4.3-4.3c0-2.4,1.9-4.3,4.3-4.3h48c2.4,0,4.3,1.9,4.3,4.3
		C230.5,456.4,228.6,458.4,226.2,458.4z"/>
	<path class="st11" d="M226.2,472.3h-48c-2.4,0-4.3-1.9-4.3-4.3s1.9-4.3,4.3-4.3h48c2.4,0,4.3,1.9,4.3,4.3
		C230.5,470.4,228.6,472.3,226.2,472.3z"/>
	<path class="st11" d="M226.2,486.3h-48c-2.4,0-4.3-1.9-4.3-4.3s1.9-4.3,4.3-4.3h48c2.4,0,4.3,1.9,4.3,4.3S228.6,486.3,226.2,486.3z
		"/>
	<path class="st11" d="M263.9,458.4h-24.7c-2.4,0-4.3-1.9-4.3-4.3c0-2.4,1.9-4.3,4.3-4.3h24.7c2.4,0,4.3,1.9,4.3,4.3
		C268.2,456.4,266.3,458.4,263.9,458.4z"/>
	<path class="st11" d="M263.9,472.3h-24.7c-2.4,0-4.3-1.9-4.3-4.3s1.9-4.3,4.3-4.3h24.7c2.4,0,4.3,1.9,4.3,4.3
		C268.2,470.4,266.3,472.3,263.9,472.3z"/>
	<path class="st11" d="M263.9,486.3h-24.7c-2.4,0-4.3-1.9-4.3-4.3s1.9-4.3,4.3-4.3h24.7c2.4,0,4.3,1.9,4.3,4.3
		S266.3,486.3,263.9,486.3z"/>
</g>
<path class="st8" d="M158.4,438.2v-23.5c0-1.6,1.3-2.9,2.9-2.9H150c-1.6,0-2.9,1.3-2.9,2.9v23.5c0,1.6,1.3,2.9,2.9,2.9h11.3
	C159.7,441,158.4,439.7,158.4,438.2z"/>
<path class="st6" d="M139.6,511.1V395.8c0-1.6,1.3-2.9,2.9-2.9h-11.3c-1.6,0-2.9,1.3-2.9,2.9v115.3c0,1.6,1.3,2.9,2.9,2.9h11.3
	C140.9,514,139.6,512.7,139.6,511.1z"/>
<path class="st10" d="M142.5,392.9h-11.3c-1.6,0-2.9,1.3-2.9,2.9v8.2h11.3v-8.2C139.6,394.2,140.9,392.9,142.5,392.9z"/>
<path class="st8" d="M178.1,505v-9.7c0-1.6,1.3-2.9,2.9-2.9h-11.3c-1.6,0-2.9,1.3-2.9,2.9v9.7c0,1.6,1.3,2.9,2.9,2.9H181
	C179.4,507.9,178.1,506.6,178.1,505z"/>
<g>
	<g>
		<path d="M450.1,418.3c-16.6,0-30.1,13.5-30.1,30.1c0,6.2,1.9,11.9,5,16.7l-0.6,0.6c-1.6,1.6-1.9,3.9-1.2,5.9l-5.6,5.6l-0.7-0.7
			c-0.3-0.3-0.8-0.3-1.1,0l-29.4,27.7c-2.2,2.2-2.2,5.6,0,7.8c1.1,1.1,2.5,1.6,3.9,1.6c1.4,0,2.9-0.5,3.9-1.6l27.7-29.4
			c0.3-0.3,0.3-0.8,0-1.1l-0.7-0.7l5.6-5.6c0.6,0.2,1.3,0.4,2,0.4c1.4,0,2.8-0.5,3.8-1.7l0.5-0.5c4.8,3.3,10.6,5.2,16.9,5.2
			c16.6,0,30.1-13.6,30.1-30.1C480.3,431.9,466.7,418.3,450.1,418.3z M393.3,510.9c-1.6,1.6-4.1,1.6-5.7,0c-1.4-1.4-1.6-3.5-0.4-5.1
			l3.3,3.2c0.2,0.2,0.3,0.2,0.5,0.2c0.2,0,0.4-0.1,0.5-0.2c0.3-0.3,0.3-0.8,0-1.1l-3.3-3.3l28.3-26.6l0.7,0.7l2.6,2.6l0.7,0.7
			L393.3,510.9z M420.3,479.8l-1.6-1.6l5.3-5.3c0.1,0.2,0.3,0.4,0.5,0.5l0.6,0.6c0.2,0.2,0.3,0.3,0.5,0.5L420.3,479.8z M431.7,472.9
			c-1.5,1.5-4.1,1.5-5.6,0l-0.6-0.6c-1.5-1.5-1.5-4.1,0-5.6l0.4-0.4c1.7,2.3,3.8,4.4,6.1,6.2L431.7,472.9z M450.1,477.1
			c-15.8,0-28.6-12.8-28.6-28.6c0-15.8,12.8-28.6,28.6-28.6s28.6,12.8,28.6,28.6C478.8,464.2,465.9,477.1,450.1,477.1z"/>
	</g>
</g>
<rect x="39.1" y="122.4" class="st0" width="247.3" height="59.3"/>
<text transform="matrix(1.1927 0 0 1 75.8115 159.0617)" class="st12 st13">WWW.</text>
</svg>
