<?xml version="1.0" encoding="utf-8"?>
<!-- Generator: Adobe Illustrator 22.1.0, SVG Export Plug-In . SVG Version: 6.00 Build 0)  -->
<svg version="1.1" id="Camada_1" xmlns="http://www.w3.org/2000/svg" xmlns:xlink="http://www.w3.org/1999/xlink" x="0px" y="0px"
	 viewBox="0 0 100 100" style="enable-background:new 0 0 100 100;" xml:space="preserve">
<style type="text/css">
	.st0{fill:#FFFFFF;}
</style>
<g>
	<g>
		<path class="st0" d="M23.8,70.2l-17-16.7l-1.4-1.4L48.8,8c0.9-0.9,0-1.5-0.9-0.7L4,52.2l19,18.6C23.8,71.7,24.6,70.8,23.8,70.2z"
			/>
		<path class="st0" d="M96.4,51.3L73.5,28.9c-0.4-0.4-1-0.1-1,0.6l22.2,21.8l-44.2,45l-20-19.6c-1-0.7-1.6,0.1-0.4,1.1l20.3,20
			L96.4,51.3z"/>
	</g>
</g>
<g>
	<g>
		<path class="st0" d="M70.1,25.6L51.8,7.5c-1-0.6-1.6,0.1-0.6,1l0,0l18.2,17.8c0.2,0.2,0.6,0.2,0.7,0
			C70.4,26.2,70.4,25.9,70.1,25.6z"/>
	</g>
</g>
<polygon points="51,3 51,3 51,3 "/>
<path class="st0" d="M50.3,3L50,2.8l0,0c-0.2-0.2-0.5-0.2-0.7,0L1,52.2l43.2,42.4c1.6,1.6,2.5,0.9,1.1-0.5L4,53.6l-1.5-1.5L49.8,4.2
	l48.1,47.2L55.5,94.6c-1,1-0.4,2.4,1.5,0.2l42.6-43.4L50.3,3z"/>
<g>
	<g>
		<path class="st0" d="M61.6,38.9c-0.2-0.2-0.3-0.2-0.5-0.2h-7.4v-3.3c0-1.7,1.1-1.9,1.6-1.9H61c0.3,0,0.6-0.3,0.6-0.6v-8.7
			c0-0.3-0.3-0.6-0.6-0.6h-8.1c-8.5,0-11.5,5.9-11.5,11.4v3.8h-4c-0.3,0-0.6,0.3-0.6,0.6v10.4c0,0.3,0.3,0.6,0.6,0.6H42v24.8
			c0,0.3,0.3,0.6,0.6,0.6h9.8c0.3,0,0.6-0.3,0.6-0.6v-5.9c0-0.3-0.3-0.6-0.6-0.6c-0.3,0-0.6,0.3-0.6,0.6v5.2h-8.5v-25
			c0-0.3-0.3-0.6-0.6-0.6H38v-9.2h4c0.3,0,0.6-0.3,0.6-0.6v-4.4c0-9.6,8.5-10.1,10.3-10.1h7.4v7.4h-5.1c-1.4,0-2.8,0.9-2.8,3.3v4
			c0,0.3,0.3,0.6,0.6,0.6h7.4l-0.8,9.2h-7.1c-0.3,0-0.6,0.3-0.6,0.6v8.5c0,0.3,0.3,0.6,0.6,0.6s0.6-0.3,0.6-0.6v-7.9h7.1
			c0.3,0,0.6-0.3,0.6-0.6l0.9-10.4C61.9,39.2,61.8,39.1,61.6,38.9z"/>
	</g>
</g>
</svg>
