<?xml version="1.0" encoding="utf-8"?>
<!-- Generator: Adobe Illustrator 22.1.0, SVG Export Plug-In . SVG Version: 6.00 Build 0)  -->
<svg version="1.1" id="Camada_1" xmlns="http://www.w3.org/2000/svg" xmlns:xlink="http://www.w3.org/1999/xlink" x="0px" y="0px"
	 viewBox="0 0 50 50" style="enable-background:new 0 0 50 50;" xml:space="preserve">
<style type="text/css">
	.st0{fill:url(#SVGID_1_);stroke:url(#SVGID_2_);stroke-miterlimit:10;}
	.st1{fill:#FFFFFF;stroke:#000000;stroke-miterlimit:10;}
</style>
<g>
	<linearGradient id="SVGID_1_" gradientUnits="userSpaceOnUse" x1="44.2785" y1="24.9501" x2="5.9886" y2="24.9501">
		<stop  offset="0" style="stop-color:#FF1200"/>
		<stop  offset="1" style="stop-color:#000000"/>
	</linearGradient>
	<linearGradient id="SVGID_2_" gradientUnits="userSpaceOnUse" x1="0.5" y1="24.9501" x2="49.5" y2="24.9501">
		<stop  offset="0" style="stop-color:#FF1200"/>
		<stop  offset="1" style="stop-color:#000000"/>
	</linearGradient>
	<path class="st0" d="M49,25c0,12.5-9.7,22.7-21.9,23.7c-0.7,0.1-1.4,0.1-2.1,0.1c-1.8,0-3.6-0.2-5.2-0.6C9.1,45.8,1,36.3,1,25
		C1,11.8,11.8,1.2,25,1.2S49,11.8,49,25z"/>
	<g>
		<path class="st1" d="M28.7,19.4c0.4-0.5,1.2-0.8,2.3-0.8c1,0,2.3,0.1,3.4,0.5l1-4.9c-2-0.7-4.1-0.9-6.2-0.9s-3.8,0.3-5.2,1
			c-1.4,0.8-2.3,1.5-2.8,2.7c-0.5,1-0.8,2.8-0.8,5v2h-4.1v5.7h4.1v17.9c1.7,0.4,3.5,0.6,5.4,0.6c0.7,0,1.4,0,2.1-0.1V29.6h5.5v-5.7
			h-5.5v-1.8C28,20.7,28.2,19.8,28.7,19.4z"/>
	</g>
</g>
</svg>
