<?xml version="1.0" encoding="utf-8"?>
<!-- Generator: Adobe Illustrator 22.1.0, SVG Export Plug-In . SVG Version: 6.00 Build 0)  -->
<svg version="1.1" id="Camada_1" xmlns="http://www.w3.org/2000/svg" xmlns:xlink="http://www.w3.org/1999/xlink" x="0px" y="0px"
	 viewBox="0 0 48 48" style="enable-background:new 0 0 48 48;" xml:space="preserve">
<style type="text/css">
	.st0{fill:#A6C2E1;}
	.st1{fill:#5D84BF;}
</style>
<g id="surface1">
	<path class="st0" d="M5.5,40.5h37c1.9,0,3.5-1.6,3.5-3.5V11c0-1.9-1.6-3.5-3.5-3.5h-37C3.6,7.5,2,9.1,2,11v26
		C2,38.9,3.6,40.5,5.5,40.5z"/>
	<path class="st0" d="M26,40.5h16.5c1.9,0,3.5-1.6,3.5-3.5V11c0-1.9-1.6-3.5-3.5-3.5h-37C3.6,7.5,2,9.1,2,11L26,40.5z"/>
	<path class="st0" d="M6.7,40.5h35.8c1.9,0,3.5-1.6,3.5-3.5V11.5L6.7,40.5z"/>
	<path class="st0" d="M25.7,40.5h16.8c1.9,0,3.5-1.6,3.5-3.5V11.5L18.8,31.6L25.7,40.5z"/>
	<path class="st1" d="M42.5,9.5h-37C3.6,9.5,2,9.1,2,11v26c0,1.9,1.6,3.5,3.5,3.5H7V12h34v28.5h1.5c1.9,0,3.5-1.6,3.5-3.5V11
		C46,9.1,44.4,9.5,42.5,9.5z"/>
	<path class="st0" d="M42.5,7.5h-37C3.6,7.5,2,9,2,11c0,1.2,1.5,2.3,1.5,2.3L24,27.8l20.5-14.5c0,0,1.5-1.1,1.5-2.3
		C46,9,44.4,7.5,42.5,7.5z"/>
	<path class="st1" d="M43.2,7.6L24,21L4.8,7.6C3.2,7.9,2,9.3,2,11c0,1.2,1.5,2.3,1.5,2.3L24,27.8l20.5-14.5c0,0,1.5-1.1,1.5-2.3
		C46,9.3,44.8,7.9,43.2,7.6z"/>
</g>
</svg>
