<?xml version="1.0" encoding="utf-8"?>
<!-- Generator: Adobe Illustrator 22.1.0, SVG Export Plug-In . SVG Version: 6.00 Build 0)  -->
<svg version="1.1" id="Layer_1" xmlns="http://www.w3.org/2000/svg" xmlns:xlink="http://www.w3.org/1999/xlink" x="0px" y="0px"
	 viewBox="0 0 16 16" style="enable-background:new 0 0 16 16;" xml:space="preserve">
<style type="text/css">
	.st0{fill:#A6C2E1;}
	.st1{fill:#5D84BF;}
</style>
<path class="st0" d="M12.2,15.4c1.8,0,3.2-1.4,3.2-3.2V3.8c0-1.8-1.4-3.2-3.2-3.2H3.8C2,0.6,0.6,2,0.6,3.8v8.4
	c0,1.8,1.4,3.2,3.2,3.2H12.2z"/>
<path class="st0" d="M1.4,1.7C0.9,2.3,0.6,3,0.6,3.8v8.4c0,1.8,1.4,3.2,3.2,3.2h8.4c1.8,0,3.2-1.4,3.2-3.2V3.8c0-0.2,0-0.4,0-0.6
	c-2.5-1.5-5.4-2.4-8.6-2.4C4.9,0.8,3.1,1.1,1.4,1.7z"/>
<path class="st0" d="M0.6,3.8C0.6,3.8,0.6,3.8,0.6,3.8v8.4c0,1.8,1.4,3.2,3.2,3.2h8.4c1.8,0,3.2-1.4,3.2-3.2v-7
	C13,3.4,10,2.4,6.8,2.4C4.6,2.4,2.5,2.9,0.6,3.8z"/>
<path class="st0" d="M0.6,5.6v6.6c0,1.8,1.4,3.2,3.2,3.2h8.4c1.8,0,3.2-1.4,3.2-3.2v-5C13.1,5.2,10.1,4,6.8,4C4.6,4,2.4,4.6,0.6,5.6
	z"/>
<path class="st0" d="M6.8,5.6c-2.3,0-4.4,0.7-6.2,1.8v4.8c0,1.8,1.4,3.2,3.2,3.2h8.4c1.8,0,3.2-1.4,3.2-3.2V9.4
	C13.3,7.1,10.2,5.6,6.8,5.6z"/>
<g>
	<path class="st0" d="M6.8,7.2C4.4,7.2,2.3,8,0.6,9.4v2.8c0,1.8,1.4,3.2,3.2,3.2h8.4c1.8,0,3.2-1.4,3.2-3.2v-0.1
		C13.6,9.2,10.5,7.2,6.8,7.2z"/>
</g>
<path class="st0" d="M6.8,8.8c-2.4,0-4.7,1.1-6.2,2.8v0.6c0,1.8,1.4,3.2,3.2,3.2h8.4c1,0,1.9-0.4,2.4-1.2
	C13.4,11.1,10.4,8.8,6.8,8.8z"/>
<g>
	<path class="st0" d="M12.2,15.4c0.4,0,0.8-0.1,1.1-0.2c-0.8-2.8-3.4-4.8-6.5-4.8c-2.5,0-4.6,1.3-5.8,3.3c0.5,1,1.6,1.7,2.8,1.7
		H12.2z"/>
</g>
<g>
	<path class="st0" d="M6.8,12c-2,0-3.8,1.2-4.7,2.9c0.5,0.3,1,0.5,1.7,0.5h7.9C11,13.4,9,12,6.8,12z"/>
</g>
<g>
	<path class="st0" d="M6.8,13.6c-1.3,0-2.5,0.7-3.1,1.8c0,0,0.1,0,0.1,0h6.1C9.3,14.3,8.1,13.6,6.8,13.6z"/>
</g>
<path class="st1" d="M12.4,0.8c1.6,0,2.8,1.2,2.8,2.8v8.8c0,1.6-1.2,2.8-2.8,2.8H3.6c-1.6,0-2.8-1.2-2.8-2.8V3.6
	C0.8,2,2,0.8,3.6,0.8H12.4 M12.4,0.4H3.6c-1.8,0-3.2,1.4-3.2,3.2v8.8c0,1.8,1.4,3.2,3.2,3.2h8.8c1.8,0,3.2-1.4,3.2-3.2V3.6
	C15.6,1.8,14.2,0.4,12.4,0.4L12.4,0.4z"/>
<circle class="st1" cx="11" cy="5" r="0.6"/>
<path class="st1" d="M8,10.8c-1.6,0-2.8-1.2-2.8-2.8S6.4,5.2,8,5.2s2.8,1.2,2.8,2.8S9.6,10.8,8,10.8z M8,6C6.9,6,6,6.9,6,8
	s0.9,2,2,2s2-0.9,2-2S9.1,6,8,6z"/>
<path class="st1" d="M10.2,13.6H5.8c-1.9,0-3.4-1.5-3.4-3.4V5.8c0-1.9,1.5-3.4,3.4-3.4h4.4c1.9,0,3.4,1.5,3.4,3.4v4.4
	C13.6,12.1,12.1,13.6,10.2,13.6z M5.8,3.2c-1.4,0-2.6,1.2-2.6,2.6v4.4c0,1.4,1.2,2.6,2.6,2.6h4.4c1.4,0,2.6-1.2,2.6-2.6V5.8
	c0-1.4-1.2-2.6-2.6-2.6H5.8z"/>
</svg>
