<?xml version="1.0" encoding="utf-8"?>
<!-- Generator: Adobe Illustrator 22.1.0, SVG Export Plug-In . SVG Version: 6.00 Build 0)  -->
<svg version="1.1" id="Camada_1" xmlns="http://www.w3.org/2000/svg" xmlns:xlink="http://www.w3.org/1999/xlink" x="0px" y="0px"
	 viewBox="0 0 50 50" style="enable-background:new 0 0 50 50;" xml:space="preserve">
<style type="text/css">
	.st0{fill:url(#SVGID_2_);stroke:url(#SVGID_3_);stroke-miterlimit:10;}
	.st1{fill:#FAFAFA;stroke:#000000;stroke-miterlimit:10;}
</style>
<g>
	<g>
		<g>
			<g>
				<linearGradient id="SVGID_2_" gradientUnits="userSpaceOnUse" x1="1.25" y1="24.75" x2="49.25" y2="24.75">
					<stop  offset="0" style="stop-color:#000000"/>
					<stop  offset="1" style="stop-color:#FF0000"/>
				</linearGradient>
				<linearGradient id="SVGID_3_" gradientUnits="userSpaceOnUse" x1="0.75" y1="24.75" x2="49.75" y2="24.75">
					<stop  offset="0" style="stop-color:#FF0000"/>
					<stop  offset="1" style="stop-color:#000000"/>
				</linearGradient>
				<path id="SVGID_1_" class="st0" d="M49.3,24.8c0,13.3-10.7,24-24,24c-13.2,0-24-10.7-24-24s10.8-24,24-24
					C38.6,0.8,49.3,11.4,49.3,24.8z"/>
			</g>
		</g>
	</g>
	<path class="st1" d="M34.8,11.8c-6.4,0-12.7,0-19.1,0c-2.3,0-3.5,1.2-3.5,3.5c0,3.2,0,6.3,0,9.4s0,6.4,0,9.5c0,2.2,1.3,3.4,3.4,3.4
		c6.5,0,12.8,0,19.2,0c2.2,0,3.5-1.3,3.5-3.5c0-6.4,0-12.7,0-19.1C38.3,13,37,11.8,34.8,11.8z M32.7,14.7c2.6,0,2.6,0,2.6,2.6
		c0,2.5,0,2.5-2.5,2.5s-2.5,0-2.5-2.5C30.2,14.7,30.2,14.7,32.7,14.7z M25.3,19.7c2.7,0,5,2.3,5,5c0,2.8-2.3,5.1-5.1,5
		c-2.7-0.1-5-2.3-5-5.1C20.2,22,22.6,19.7,25.3,19.7z M35.3,33.2c0,1.3-0.3,1.5-1.5,1.5c-2.8,0-5.7,0-8.5,0s-5.6,0-8.5,0
		c-1.2,0-1.5-0.4-1.5-1.5c0-3.1,0-6.3,0-9.4c0-0.9,0.3-1.1,1.1-1.1c1.2,0.1,1.3,0,1.1,1.2c-0.5,4,2.3,7.9,6.3,8.7
		c4,0.8,8.1-1.6,9.3-5.6c0.3-1.3,0.5-2.5,0.2-3.8c-0.1-0.5,0-0.6,0.4-0.6c1.8-0.1,1.8-0.2,1.8,1.6C35.3,27.4,35.3,30.2,35.3,33.2z"
		/>
</g>
</svg>
