<?xml version="1.0" encoding="utf-8"?>
<!-- Generator: Adobe Illustrator 22.1.0, SVG Export Plug-In . SVG Version: 6.00 Build 0)  -->
<svg version="1.1" id="Camada_1" xmlns="http://www.w3.org/2000/svg" xmlns:xlink="http://www.w3.org/1999/xlink" x="0px" y="0px"
	 viewBox="0 0 100 100" style="enable-background:new 0 0 100 100;" xml:space="preserve">
<style type="text/css">
	.st0{fill:#FFFFFF;}
</style>
<g>
	<g>
		<path class="st0" d="M68.3,50.5c-0.2,0-0.5,0.2-0.5,0.5v11.7c0,3.8-3,6.7-6.7,6.7H37.7c-3.8,0-6.7-3-6.7-6.7V39.2
			c0-3.8,3-6.7,6.7-6.7h23.5c3.8,0,6.8,3,6.8,6.8c0,0.2,0.2,0.5,0.5,0.5c0.3,0,0.5-0.2,0.5-0.5c0-4.4-3.5-7.8-7.8-7.8H37.7
			c-4.3,0-7.8,3.4-7.8,7.8v23.5c0,4.3,3.4,7.8,7.8,7.8h23.5c4.3,0,7.8-3.4,7.8-7.8V51.1C68.8,50.7,68.7,50.5,68.3,50.5z"/>
	</g>
</g>
<g>
	<g>
		<path class="st0" d="M64.4,35.8c-0.1-0.1-0.2-0.1-0.4-0.1h-6.3c-0.2,0-0.5,0.2-0.5,0.5v6.4c0,0.1,0.1,0.2,0.1,0.4
			c0.1,0.1,0.2,0.1,0.4,0.1l0,0h6.4c0.2,0,0.5-0.2,0.5-0.5v-6.4C64.6,36.1,64.4,36,64.4,35.8z M63.6,42.2h-5.4v-5.5h5.4V42.2
			L63.6,42.2z"/>
	</g>
</g>
<g>
	<g>
		<path class="st0" d="M65.1,46.5h-5.9c-0.1,0-0.4,0.1-0.5,0.2c-0.1,0.1-0.1,0.4,0,0.5c0.5,0.9,0.7,2.3,0.7,3.7c0,5.5-4.4,10-10,10
			s-9.9-4.4-9.9-9.9c0-1.4,0.2-2.9,0.7-3.7c0.1-0.1,0.1-0.4,0-0.5c-0.1-0.1-0.2-0.2-0.5-0.2h-5.9c-0.2,0-0.5,0.2-0.5,0.5v15.8
			c0,2.3,2,4.3,4.3,4.3h23.5c2.3,0,4.3-2,4.3-4.3V47C65.5,46.8,65.3,46.5,65.1,46.5z M64.6,62.7c0,1.8-1.5,3.4-3.4,3.4H37.7
			c-1.8,0-3.4-1.5-3.4-3.4V47.4H39c-0.4,1-0.5,2.1-0.5,3.5c0,6,4.9,11,11,11S60.4,57,60.4,51c0-1.2-0.2-2.4-0.5-3.5h4.7V62.7
			L64.6,62.7z"/>
	</g>
</g>
<g>
	<g>
		<path class="st0" d="M55.3,46.8c-1.3-1.9-3.6-3-5.9-3c-2.3,0-4.4,1.1-5.9,3c-0.9,1.2-1.3,2.8-1.3,4.2c0,3.9,3.3,7.2,7.2,7.2
			s7.2-3.3,7.2-7.2C56.6,49.4,56.1,47.9,55.3,46.8z M49.4,57.2c-3.5,0-6.2-2.8-6.2-6.2c0-1.3,0.4-2.6,1.2-3.6c1.2-1.6,3.1-2.6,5-2.6
			c2,0,3.8,1,5,2.6c0.7,1.1,1.2,2.3,1.2,3.6C55.6,54.5,52.9,57.2,49.4,57.2z"/>
	</g>
</g>
<g>
	<g>
		<path class="st0" d="M23.8,70.2l-17-16.7l-1.4-1.4L48.8,8c0.9-0.9,0-1.5-0.9-0.7L4,52.2l19,18.6C23.8,71.7,24.6,70.8,23.8,70.2z"
			/>
		<path class="st0" d="M96.4,51.3L73.5,28.9c-0.4-0.4-1-0.1-1,0.6l22.2,21.8l-44.2,45l-20-19.6c-1-0.7-1.6,0.1-0.4,1.1l20.3,20
			L96.4,51.3z"/>
	</g>
</g>
<g>
	<g>
		<path class="st0" d="M70.1,25.6L51.8,7.5c-1-0.6-1.6,0.1-0.6,1l0,0l18.2,17.8c0.2,0.2,0.6,0.2,0.7,0
			C70.4,26.2,70.4,25.9,70.1,25.6z"/>
	</g>
</g>
<polygon points="51,3 51,3 51,3 "/>
<path class="st0" d="M50.3,3L50,2.8l0,0c-0.2-0.2-0.5-0.2-0.7,0L1,52.2l43.2,42.4c1.6,1.6,2.5,0.9,1.1-0.5L4,53.6l-1.5-1.5L49.8,4.2
	l48.1,47.2L55.5,94.6c-1,1-0.4,2.4,1.5,0.2l42.6-43.4L50.3,3z"/>
</svg>
