<?xml version="1.0" encoding="iso-8859-1"?>
<!-- Generator: Adobe Illustrator 16.0.0, SVG Export Plug-In . SVG Version: 6.00 Build 0)  -->
<!DOCTYPE svg PUBLIC "-//W3C//DTD SVG 1.1//EN" "http://www.w3.org/Graphics/SVG/1.1/DTD/svg11.dtd">
<svg version="1.1" id="Capa_1" xmlns="http://www.w3.org/2000/svg" xmlns:xlink="http://www.w3.org/1999/xlink" x="0px" y="0px"
	 width="612px" height="612px" viewBox="0 0 612 612" style="enable-background:new 0 0 612 612;" xml:space="preserve">
<g>
	<g id="Shape_4">
		<g>
			<path d="M73.862,137.173c-11.66,0-21.104,9.455-21.104,21.104c0,11.66,9.444,21.104,21.104,21.104
				c11.659,0,21.103-9.444,21.103-21.104C94.965,146.627,85.521,137.173,73.862,137.173z M170.115,357.071l141.002,84.604
				l5.435-9.053l9.95,3.514l56.283-159.479l114.919,172.372l17.558-11.701L388.641,247.396l-8.778,5.846l-9.95-3.514
				l-59.006,167.203L163.71,328.612l-2.786,4.654l-1.309-0.729l-52.758,94.965l18.444,10.246L170.115,357.071z M569.793,94.966
				H42.207C18.898,94.966,0,113.864,0,137.173v337.654c0,23.311,18.898,42.207,42.207,42.207h527.586
				c23.309,0,42.207-18.896,42.207-42.207V137.173C612,113.864,593.102,94.966,569.793,94.966z M590.896,453.726
				c0,23.309-8.347,42.205-31.655,42.205H63.311c-23.309,0-42.207-18.896-42.207-42.205V221.587h569.793V453.726z M590.896,200.483
				H21.104v-42.207c0-23.309,18.898-42.207,42.207-42.207h495.931c23.309,0,31.655,18.898,31.655,42.207V200.483z M137.172,137.173
				c-11.66,0-21.104,9.444-21.104,21.104s9.444,21.104,21.104,21.104s21.104-9.444,21.104-21.104
				C158.276,146.627,148.832,137.173,137.172,137.173z M200.483,137.173c-11.66,0-21.104,9.444-21.104,21.104
				s9.444,21.104,21.104,21.104s21.104-9.444,21.104-21.104C221.586,146.627,212.143,137.173,200.483,137.173z"/>
		</g>
	</g>
</g>
<g>
</g>
<g>
</g>
<g>
</g>
<g>
</g>
<g>
</g>
<g>
</g>
<g>
</g>
<g>
</g>
<g>
</g>
<g>
</g>
<g>
</g>
<g>
</g>
<g>
</g>
<g>
</g>
<g>
</g>
</svg>
