<?xml version="1.0" encoding="utf-8"?>
<!-- Generator: Adobe Illustrator 22.1.0, SVG Export Plug-In . SVG Version: 6.00 Build 0)  -->
<svg version="1.1" id="Camada_1" xmlns="http://www.w3.org/2000/svg" xmlns:xlink="http://www.w3.org/1999/xlink" x="0px" y="0px"
	 viewBox="0 0 100 100" style="enable-background:new 0 0 100 100;" xml:space="preserve">
<style type="text/css">
	.st0{fill:#FFFFFF;}
</style>
<g>
	<g>
		<path class="st0" d="M23.8,70.2l-17-16.7l-1.4-1.4L48.8,8c0.9-0.9,0-1.5-0.9-0.7L4,52.2l19,18.6C23.8,71.7,24.6,70.8,23.8,70.2z"
			/>
		<path class="st0" d="M96.4,51.3L73.5,28.9c-0.4-0.4-1-0.1-1,0.6l22.2,21.8L50.5,96.3l-20-19.6c-1-0.7-1.6,0.1-0.4,1.1l20.3,20
			L96.4,51.3z"/>
	</g>
</g>
<g>
	<g>
		<path class="st0" d="M70.1,25.6L51.8,7.5c-1-0.6-1.6,0.1-0.6,1l0,0l18.2,17.8c0.2,0.2,0.6,0.2,0.7,0
			C70.4,26.2,70.4,25.9,70.1,25.6z"/>
	</g>
</g>
<polygon points="51,3 51,3 51,3 51,3 "/>
<path class="st0" d="M50.3,3L50,2.8l0,0c-0.2-0.2-0.5-0.2-0.7,0L1,52.2l43.2,42.4c1.6,1.6,2.5,0.9,1.1-0.5L4,53.6l-1.5-1.5L49.8,4.2
	l48.1,47.2L55.5,94.6c-1,1-0.4,2.4,1.5,0.2l42.6-43.4L50.3,3z"/>
<g>
	<g>
		<g>
			<path class="st0" d="M59.5,52.7l-0.2-0.1c-0.4-0.1-2.7-1.4-3.2-1.5c-0.4-0.1-1.1-0.4-1.6,0.4c-0.2,0.4-1.1,1.4-1.4,1.7
				c-0.1,0.1-0.1,0.1-0.4,0c-0.1,0-0.2-0.1-0.4-0.1c-0.6-0.2-1.9-0.7-3.2-2.1c-0.2-0.1-0.5-0.1-0.7,0c-0.2,0.1-0.1,0.5,0,0.7
				c1.5,1.4,2.9,2,3.5,2.2c0.1,0,0.2,0.1,0.2,0.1c0.2,0.1,1,0.5,1.6-0.2c0,0,1.1-1.2,1.5-1.9c0.1-0.1,0.1-0.1,0.5,0
				c0.4,0.1,2.5,1.1,3.1,1.5l0.2,0.1c0.1,0.1,0.4,0.1,0.4,0.2c0,0.2,0,0.9-0.2,1.7c-0.2,0.9-2,1.7-2.7,1.9c-0.1,0-0.4,0-0.5,0.1
				c-0.5,0.1-1.1,0.2-4.9-1.2c-2.7-1-5.4-3.4-7.6-6.6c-0.1-0.1-0.1-0.1-0.1-0.1c-0.4-0.5-1.7-2.5-1.7-4.5c0-1.9,1-2.9,1.4-3.4
				l0.1-0.1c0.4-0.4,0.7-0.4,0.9-0.4c0.1,0,0.2,0,0.4,0c0.2,0,0.4,0,0.6,0c0.1,0,0.2,0,0.5,0.5c0.1,0.4,0.4,0.7,0.5,1.2
				c0.5,1.2,0.9,2,0.9,2.1c0.1,0.2,0.1,0.2,0,0.4l-0.1,0.1c-0.1,0.2-0.1,0.4-0.4,0.5c-0.1,0.1-0.1,0.2-0.2,0.2
				c-0.1,0.1-0.2,0.4-0.4,0.5c-0.2,0.2-0.7,0.7-0.2,1.5c0.1,0.2,0.4,0.2,0.6,0.1c0.2-0.1,0.4-0.4,0.1-0.6c-0.1-0.1-0.1-0.1,0.1-0.4
				c0.1-0.1,0.4-0.4,0.5-0.5c0.1-0.1,0.1-0.2,0.2-0.2c0.2-0.2,0.4-0.5,0.5-0.7l0.1-0.1c0.2-0.6,0-1.1,0-1.2
				c-0.1-0.1-0.5-1.2-0.9-2.1c-0.2-0.5-0.4-1-0.5-1.2c-0.4-1-1-1.1-1.4-1.1H45c-0.1,0-0.2,0-0.4,0s-0.4,0-0.5,0
				c-0.2,0-1,0.1-1.6,0.7L42.4,41c-0.5,0.5-1.6,1.7-1.6,4.1c0,2.2,1.4,4.2,2,5.1c0,0,0,0.1,0.1,0.1c2.2,3.4,5.1,5.9,8,7
				c2.7,1.1,4,1.4,4.7,1.4c0.4,0,0.5,0,0.7-0.1c0.1,0,0.2,0,0.4-0.1c1-0.1,3.1-1.1,3.5-2.5c0.4-1,0.5-2.2,0.2-2.6
				C60.2,52.9,59.9,52.8,59.5,52.7z"/>
			<path class="st0" d="M50.4,33c-9,0-16.3,7.4-16.3,16.2c0,3.4,1,6.6,3,9.3l-1.9,5.6c-0.1,0.1,0,0.4,0.1,0.5
				c0.1,0.1,0.4,0.1,0.5,0.1l5.9-1.9c2.6,1.6,5.7,2.6,8.8,2.6c9.1,0,16.3-7.4,16.3-16.2C66.7,40.2,59.5,33,50.4,33z M50.4,64.5
				c-3,0-6-0.9-8.5-2.5c-0.1,0-0.1-0.1-0.2-0.1h-0.1l-5.1,1.6l1.6-5c0-0.1,0-0.4-0.1-0.5c-1.9-2.6-2.9-5.7-2.9-9
				c0-8.5,6.9-15.2,15.3-15.2s15.3,6.9,15.3,15.2C65.8,57.7,58.9,64.5,50.4,64.5z"/>
		</g>
	</g>
</g>
<g>
	<g>
		<path class="st0" d="M50.4,30C39.7,30,31,38.6,31,49.2c0,3.4,0.9,6.9,2.6,9.7l-3.4,9.8c-0.1,0.1,0,0.4,0.1,0.5
			c0.1,0.1,0.2,0.1,0.4,0.1h0.1L41,66.1c2.7,1.5,6,2.2,9.2,2.2c10.7,0,19.4-8.6,19.4-19.2C69.8,38.6,61.1,30,50.4,30z M50.4,67.5
			c-3.1,0-6.2-0.7-8.8-2.2c-0.1-0.1-0.2-0.1-0.4,0l-9.5,3l3.1-9.1c0-0.1,0-0.2,0-0.4c-1.7-2.9-2.6-6.1-2.6-9.5
			c0-10.1,8.2-18.2,18.4-18.2c10.1,0,18.4,8.2,18.4,18.2C68.8,59.3,60.6,67.5,50.4,67.5z"/>
	</g>
</g>
</svg>
