<?xml version="1.0" encoding="utf-8"?>
<!-- Generator: Adobe Illustrator 23.0.0, SVG Export Plug-In . SVG Version: 6.00 Build 0)  -->
<svg version="1.1" id="Camada_1" xmlns="http://www.w3.org/2000/svg" xmlns:xlink="http://www.w3.org/1999/xlink" x="0px" y="0px"
	 viewBox="0 0 511 511" style="enable-background:new 0 0 511 511;" xml:space="preserve">
<style type="text/css">
	.st0{fill:#4885FF;}
	.st1{fill:#4382FF;}
	.st2{font-family:'AgencyFB-Reg';}
	.st3{font-size:19px;}
</style>
<path class="st0" d="M340.9,164.9h-2.6c-2.3-13.1-8.6-25.1-18.2-34.7c-12.4-12.4-28.9-19.2-46.5-19.2s-34,6.8-46.5,19.2
	c-9.7,9.7-15.9,21.8-18.2,35h-2.5c-2.9,0-5.3,2.4-5.3,5.3v19.1c0,2.9,2.4,5.3,5.3,5.3h4.1c3.5,12.2,10.5,23.2,20.3,31.7
	c0.9,0.8,2.2,0.7,3-0.2c0.8-0.9,0.7-2.2-0.2-3c-2.5-2.2-4.9-4.6-7-7.1c3.3-1.4,6.6-2.5,9.9-3.4c1.6,2.8,3.4,5.5,5.3,8.1
	c4.3,5.7,9.2,10.6,14.4,14.7c-4.3-1.3-8.5-3-12.5-5.2c-1-0.6-2.3-0.2-2.9,0.8c-0.6,1-0.2,2.3,0.8,2.9c9.7,5.4,20.7,8.2,31.9,8.2
	c17.5,0,34-6.8,46.5-19.2c8-8,13.6-17.6,16.7-28.2h4.1c2.9,0,5.3-2.4,5.3-5.3v-19.5C346.1,167.3,343.8,164.9,340.9,164.9z
	 M333.9,164.9h-14.8c-0.2-1.1-0.4-2.2-0.6-3.3c-1.3-6.1-3.2-11.9-5.9-17.4c0.4-0.1,0.8-0.2,1.2-0.3c2.7-0.8,6.2-1.8,9.5-3.3
	C328.7,147.8,332.2,156.1,333.9,164.9z M314.9,165.2h-22c-0.1-1.1-0.2-2.1-0.2-3.2c-0.4-4.8-1-9.4-1.8-13.8c6.1-0.6,12-1.6,17.6-3
	c2.7,5.4,4.7,11.2,5.9,17.2C314.6,163.4,314.7,164.3,314.9,165.2z M317.1,133.2c1.3,1.3,2.4,2.6,3.6,3.9c-2.8,1.1-5.7,2-8,2.7
	c-0.7,0.2-1.3,0.4-2,0.6c-1.3-2.4-2.8-4.8-4.4-7c-4.2-5.9-9.3-11.1-15-15.5C300.9,120.6,309.7,125.9,317.1,133.2z M280.2,115.6
	c9,5.1,16.6,11.9,22.6,20.2c1.3,1.8,2.5,3.7,3.6,5.6c-5.3,1.2-10.7,2.1-16.4,2.7c-2.5-11.5-6.2-21.3-10.9-28.6
	C279.5,115.5,279.8,115.5,280.2,115.6z M273.6,115.2c0.1,0,0.1,0,0.2,0c5.2,6.8,9.3,17,12,29.2c-4.5,0.3-9.2,0.5-14,0.4
	c-3.2,0-6.7-0.1-10.3-0.4c2.7-12.2,6.8-22.4,12-29.2C273.5,115.2,273.6,115.2,273.6,115.2z M268.1,115.5
	c-4.7,7.3-8.4,17.2-10.9,28.6c-5.3-0.5-10.9-1.2-16.5-2.5c1.1-2,2.4-3.9,3.7-5.8c5.9-8.3,13.5-15.1,22.6-20.2
	C267.4,115.5,267.8,115.5,268.1,115.5z M256.4,148.3c-0.8,4.4-1.4,9-1.8,13.7c-0.1,1.1-0.2,2.1-0.2,3.2h-22c0.2-0.9,0.3-1.8,0.5-2.7
	c1.2-6,3.2-11.6,5.8-17C244.7,146.9,250.7,147.8,256.4,148.3z M230.2,133.2c7.3-7.3,16.2-12.6,25.9-15.5c-5.7,4.4-10.8,9.6-15,15.5
	c-1.7,2.3-3.2,4.7-4.6,7.2c-3.3-0.9-6.6-2.1-9.9-3.4C227.7,135.8,228.9,134.5,230.2,133.2z M223.9,140.6c3.5,1.5,7,2.8,10.6,3.8
	c-2.6,5.4-4.5,11.2-5.8,17.2c-0.2,1.2-0.5,2.4-0.6,3.6h-14.8C214.9,156.3,218.5,147.9,223.9,140.6z M206.4,190.6c-0.6,0-1-0.5-1-1
	v-19.1c0-0.6,0.5-1,1-1h61.4c1.2,0,2.1-1,2.1-2.1c0-1.2-1-2.1-2.1-2.1h-9.2c0.1-0.9,0.1-1.9,0.2-2.8c0.4-4.8,1-9.3,1.9-13.7
	c3.9,0.2,7.6,0.4,11.1,0.4c0.8,0,1.7,0,2.5,0c4.2,0,8.3-0.2,12.3-0.5c0.8,4.4,1.4,9,1.9,13.8c0.1,0.9,0.2,1.9,0.2,2.8H281
	c-1.2,0-2.1,1-2.1,2.1c0,1.2,1,2.1,2.1,2.1h33v21.2L206.4,190.6L206.4,190.6z M313.5,194.9c-1.2,4.6-2.9,9-5.1,13.2
	c-5.6-1.3-11.5-2.3-17.6-3c0.6-3.3,1.1-6.8,1.5-10.3L313.5,194.9L313.5,194.9z M288.1,194.9c-0.4,3.4-0.9,6.7-1.5,9.9
	c-4.8-0.4-9.8-0.5-14.9-0.4c-3.5,0-7.2,0.2-11.1,0.4c-0.6-3.2-1.1-6.5-1.5-9.8H288.1z M223.9,212.7c-3.9-5.4-7-11.5-9-17.9h14.4
	c1.2,4.9,2.9,9.6,5.1,14.1C230.9,210,227.4,211.2,223.9,212.7z M233.7,194.9h21.2c0.4,3.5,0.9,6.9,1.5,10.2
	c-5.7,0.5-11.7,1.4-17.7,2.8C236.6,203.7,234.9,199.3,233.7,194.9z M267,237.8c-8-4.5-15.5-11.2-21.8-19.5c-1.6-2.1-3.1-4.3-4.4-6.6
	c5.6-1.3,11.1-2,16.4-2.5c0.8,3.9,1.8,7.6,3,11c1.7,5.1,4.4,12,7.9,17.6C267.8,237.8,267.4,237.8,267,237.8z M273.6,238.1
	c-0.1,0-0.1,0-0.2,0c-3.3-4.4-6.5-11.1-9.2-19.2c-1-3.2-2-6.5-2.7-10c3.6-0.2,7-0.3,10.3-0.4c4.8-0.1,9.4,0.1,13.9,0.4
	c-0.8,3.5-1.7,6.8-2.7,10c-2.7,8.1-5.9,14.8-9.2,19.2C273.7,238.1,273.7,238.1,273.6,238.1z M279.1,237.9c3.6-5.7,6.2-12.5,7.9-17.6
	c1.1-3.5,2.1-7.1,3-11c5.6,0.6,11.1,1.5,16.3,2.6c-1.3,2.2-2.7,4.3-4.3,6.3c-6.3,8.3-13.9,15-21.8,19.5
	C279.8,237.8,279.5,237.8,279.1,237.9z M317.1,220.1c-7.4,7.4-16.4,12.7-26.2,15.5c5.2-4.1,10.1-9.1,14.5-14.8
	c1.9-2.5,3.7-5.1,5.2-7.9c0.7,0.2,1.4,0.4,2.1,0.6c2.3,0.7,5.1,1.5,8,2.7C319.5,217.6,318.3,218.9,317.1,220.1z M323.4,212.8
	c-3.4-1.4-6.8-2.5-9.5-3.3c-0.4-0.1-0.8-0.2-1.2-0.3c2.2-4.5,4-9.3,5.2-14.2h14.4C330.3,201.3,327.3,207.3,323.4,212.8z
	 M341.9,189.6c0,0.6-0.5,1-1,1h-22.6v-21.2h22.6c0.6,0,1,0.5,1,1V189.6z"/>
<path class="st1" d="M336.3,175.6l-2.3-0.3l-1-2.1c-0.5-1.1-1.6-1.8-2.9-1.8s-2.3,0.7-2.9,1.8l-1,2.1l-2.3,0.3
	c-1.2,0.2-2.2,1-2.6,2.2c-0.4,1.2-0.1,2.4,0.8,3.3l1.7,1.6l-0.4,2.3c-0.2,1.2,0.3,2.4,1.3,3.1c1,0.7,2.3,0.8,3.4,0.2l2.1-1.1
	l2.1,1.1c0.5,0.2,1,0.4,1.5,0.4c0.7,0,1.3-0.2,1.9-0.6c1-0.7,1.5-1.9,1.3-3.1l-0.4-2.3l1.7-1.6c0.9-0.9,1.2-2.1,0.8-3.3
	C338.4,176.6,337.5,175.8,336.3,175.6z M333,180c-0.8,0.7-1.1,1.8-0.9,2.8l0.1,0.7l-0.6-0.3c-0.9-0.5-2-0.5-3,0l-0.6,0.3l0.1-0.7
	c0.2-1-0.2-2.1-0.9-2.8l-0.5-0.5l0.7-0.1c1-0.2,1.9-0.8,2.4-1.7l0.3-0.6l0.3,0.6c0.5,0.9,1.4,1.6,2.4,1.7l0.7,0.1L333,180z"/>
<text transform="matrix(1 0 0 1 241.3183 188.6563)" class="st2 st3">Tec-up.com</text>
<text transform="matrix(1 0 0 1 208.4933 188.6563)" class="st2 st3">WWW</text>
</svg>
